<svg width="40" height="40" viewBox="0 0 40 40" fill="none" xmlns="http://www.w3.org/2000/svg">
<path d="M25.093 1.054L21.16 0L17.845 12.37L14.853 1.202L10.92 2.256L14.153 14.322L6.1 6.269L3.22 9.149L12.054 17.981L1.054 15.034L0 18.967L12.019 22.187C11.742 20.9932 11.738 19.7524 12.0072 18.5568C12.2765 17.3613 12.8121 16.2419 13.5741 15.2822C14.3361 14.3224 15.3049 13.547 16.4083 13.0137C17.5116 12.4804 18.7211 12.203 19.9466 12.2022C21.1721 12.2013 22.3819 12.4771 23.486 13.0088C24.5901 13.5406 25.56 14.3146 26.3233 15.2733C27.0867 16.232 27.6238 17.3506 27.8947 18.5458C28.1656 19.741 28.1633 20.9819 27.888 22.176L38.81 25.102L39.864 21.169L27.798 17.936L38.798 14.989L37.744 11.055L25.678 14.289L33.731 6.236L30.851 3.356L22.141 12.067L25.093 1.054Z" fill="#FF820A"/>
<path d="M27.877 22.221C27.5446 23.6229 26.8453 24.9113 25.851 25.954L33.764 33.867L36.644 30.987L27.877 22.221ZM25.771 26.037C24.7687 27.0621 23.5134 27.8041 22.132 28.188L25.012 38.934L28.945 37.88L25.771 26.037ZM21.985 28.227C21.3208 28.3974 20.6378 28.4835 19.952 28.483C19.199 28.483 18.471 28.381 17.779 28.19L14.898 38.946L18.83 40L21.984 28.227H21.985ZM17.64 28.15C16.2787 27.7464 15.0466 26.9938 14.066 25.967L6.13304 33.9L9.01304 36.78L17.641 28.15H17.64ZM14 25.897C13.031 24.8618 12.3498 23.591 12.024 22.211L1.06604 25.147L2.12004 29.08L14 25.897Z" fill="#FF820A"/>
</svg>
